<?xml version="1.0" encoding="UTF-8"?>
<svg xmlns="http://www.w3.org/2000/svg" xmlns:xlink="http://www.w3.org/1999/xlink" viewBox="0 0 450.77 150.35">
  <defs>
    <style>.cls-1{fill:#2d358e;}.cls-2{fill:url(#linear-gradient);}</style>
    <linearGradient id="linear-gradient" x1="36.9" y1="2.22" x2="36.9" y2="219.16" gradientUnits="userSpaceOnUse">
      <stop offset="0" stop-color="#e6232b"></stop>
      <stop offset="0.43" stop-color="#672d72"></stop>
      <stop offset="0.49" stop-color="#552e7c"></stop>
      <stop offset="0.55" stop-color="#4b3180"></stop>
      <stop offset="0.69" stop-color="#393588"></stop>
      <stop offset="0.84" stop-color="#2e388d"></stop>
      <stop offset="1" stop-color="#2a398e"></stop>
    </linearGradient>
  </defs>
  <title>bbr_logo</title>
  <g id="Layer_2">
    <g id="Layer_1-2">
      <path class="cls-1" d="M106.78,26.9a.29.29,0,0,1,.31-.31h8.15c4.55,0,6.67,2.24,6.67,5.57a4.77,4.77,0,0,1-2.43,4.46v.06a4.94,4.94,0,0,1,2.8,4.74c0,4.12-2.74,6.09-7.26,6.09h-7.94a.29.29,0,0,1-.31-.31V26.9m7.9,8.24c1.72,0,2.74-.92,2.74-2.46s-1-2.43-2.74-2.43h-3.2a.16.16,0,0,0-.18.18V35a.16.16,0,0,0,.18.18Zm-3.2,8.7h3.44c1.85,0,2.83-1,2.83-2.61s-1-2.61-2.83-2.61h-3.44a.16.16,0,0,0-.18.18v4.86A.16.16,0,0,0,111.49,43.84Zm21.46-1.08a16.9,16.9,0,0,1-.58-5.72,16.9,16.9,0,0,1,.58-5.72c1.08-3.38,4-5.07,7.63-5.07s6.55,1.69,7.63,5.07a16.89,16.89,0,0,1,.59,5.72,16.89,16.89,0,0,1-.59,5.72c-1.07,3.38-4,5.07-7.63,5.07s-6.55-1.69-7.63-5.07m10.92-1.23A15.33,15.33,0,0,0,144.2,37a15.34,15.34,0,0,0-.34-4.49,3.5,3.5,0,0,0-6.58,0,15.37,15.37,0,0,0-.34,4.49,15.35,15.35,0,0,0,.34,4.49,3.5,3.5,0,0,0,6.58,0ZM159.61,26.9a.29.29,0,0,1,.31-.31h7.78c3.66,0,6.21,1.57,7.23,4.71.37,1.17.55,2.34.55,5.75s-.18,4.58-.55,5.75c-1,3.14-3.57,4.7-7.23,4.7h-7.78a.29.29,0,0,1-.31-.31V26.9m4.7,16.58h2.37c2.09,0,3.35-.62,3.87-2.31a12.81,12.81,0,0,0,.34-4.12,12.82,12.82,0,0,0-.34-4.12c-.52-1.69-1.78-2.31-3.87-2.31h-2.37a.16.16,0,0,0-.18.18V43.29A.16.16,0,0,0,164.31,43.47Zm25.86,4h3.9a.29.29,0,0,0,.31-.31v-8l6.18-12.27c.09-.15,0-.31-.21-.31h-3.88a.46.46,0,0,0-.46.31l-3.78,7.63h-.09l-3.78-7.63a.46.46,0,0,0-.46-.31h-4a.21.21,0,0,0-.21.31l6.18,12.27v8a.29.29,0,0,0,.31.31m31.46-20.6a.29.29,0,0,1,.31-.31h8.15c4.55,0,6.67,2.24,6.67,5.57a4.77,4.77,0,0,1-2.43,4.46v.06a4.94,4.94,0,0,1,2.8,4.74c0,4.12-2.74,6.09-7.26,6.09h-7.93a.29.29,0,0,1-.31-.31V26.9m7.9,8.24c1.72,0,2.74-.92,2.74-2.46s-1-2.43-2.74-2.43h-3.2a.16.16,0,0,0-.18.18V35a.16.16,0,0,0,.18.18Zm-3.2,8.7h3.44c1.85,0,2.83-1,2.83-2.61s-1-2.61-2.83-2.61h-3.44a.16.16,0,0,0-.18.18v4.86A.16.16,0,0,0,226.34,43.84Zm26.2,3.66h3.9a.29.29,0,0,0,.31-.31v-8l6.18-12.27c.09-.15,0-.31-.22-.31h-3.87a.46.46,0,0,0-.46.31l-3.78,7.63h-.09l-3.78-7.63a.46.46,0,0,0-.46-.31h-4a.21.21,0,0,0-.21.31l6.18,12.27v8a.29.29,0,0,0,.31.31M137.63,127a1.2,1.2,0,0,1-1.33-.89L125.91,104h-8.08a.47.47,0,0,0-.53.53v21.59a.84.84,0,0,1-.89.89H105.12a.84.84,0,0,1-.89-.89V67.52a.84.84,0,0,1,.89-.89H129.2c12.35,0,20.52,7.73,20.52,18.74A17.69,17.69,0,0,1,139,102.17L150.87,126a.68.68,0,0,1-.62,1.07H137.63m-1-41.66c0-4.53-3.2-7.46-8.17-7.46H117.83a.47.47,0,0,0-.53.53V92.4a.47.47,0,0,0,.53.53h10.66C133.46,92.93,136.66,90,136.66,85.38Zm35.18,28c-1.33-4.17-1.69-7.55-1.69-16.52s.36-12.35,1.69-16.52c3.11-9.77,11.46-14.66,22-14.66s18.92,4.89,22,14.66c1.33,4.17,1.69,7.55,1.69,16.52s-.35,12.35-1.69,16.52c-3.11,9.77-11.46,14.66-22,14.66s-18.92-4.88-22-14.66m31.53-3.55c.71-2.13,1-5.06,1-13s-.27-10.84-1-13c-1.33-4.18-4.53-6.66-9.5-6.66s-8.17,2.49-9.51,6.66c-.71,2.13-1,5.06-1,13s.27,10.84,1,13c1.33,4.17,4.53,6.66,9.51,6.66S202,114,203.37,109.81ZM240,67.52a.84.84,0,0,1,.89-.89H264.4c13.15,0,19.27,6.48,19.27,16.08,0,6.57-3,10.66-7,12.88v.18c4,1.51,8.08,6.48,8.08,13.68,0,11.9-7.91,17.59-21,17.59H240.86a.84.84,0,0,1-.89-.89V67.52M262.8,91.33c5,0,7.91-2.66,7.91-7.11s-2.93-7-7.91-7h-9.24a.47.47,0,0,0-.53.54V90.8a.47.47,0,0,0,.53.53Zm-9.24,25.14h9.95c5.33,0,8.17-2.84,8.17-7.55s-2.84-7.55-8.17-7.55h-9.95a.47.47,0,0,0-.53.53v14A.47.47,0,0,0,253.56,116.47Zm53-48.95a.84.84,0,0,1,.89-.89H331c13.15,0,19.28,6.48,19.28,16.08,0,6.57-3,10.66-7,12.88v.18c4,1.51,8.08,6.48,8.08,13.68,0,11.9-7.91,17.59-21,17.59H307.48a.84.84,0,0,1-.89-.89V67.52m22.83,23.81c5,0,7.91-2.66,7.91-7.11s-2.93-7-7.91-7h-9.24a.47.47,0,0,0-.53.54V90.8a.47.47,0,0,0,.53.53Zm-9.24,25.14h9.95c5.33,0,8.17-2.84,8.17-7.55s-2.84-7.55-8.17-7.55h-9.95a.47.47,0,0,0-.53.53v14A.47.47,0,0,0,320.18,116.47Zm53-48.95v58.63a.84.84,0,0,0,.89.89h11.28a.84.84,0,0,0,.89-.89V67.52a.84.84,0,0,0-.89-.89H374.1a.84.84,0,0,0-.89.89m37,0v58.63a.84.84,0,0,0,.89.89h38.73a.84.84,0,0,0,.89-.89v-9.51a.84.84,0,0,0-.89-.89h-26a.47.47,0,0,1-.53-.53V102.7a.47.47,0,0,1,.53-.53h21.67a.84.84,0,0,0,.89-.89V91.86a.84.84,0,0,0-.89-.89H423.85a.47.47,0,0,1-.53-.53v-12a.47.47,0,0,1,.53-.53h26a.84.84,0,0,0,.89-.89v-9.5a.84.84,0,0,0-.89-.89H411.15a.84.84,0,0,0-.89.89"></path>
      <path class="cls-2" d="M4.78,150.35a4.55,4.55,0,0,1-4.53-4.55V90.2a4.56,4.56,0,0,1,3.34-4.38L30,78.54q4.92-1.35,9.3-3Q35.69,74.18,31.68,73L3.26,64.67A4.57,4.57,0,0,1,0,60.31V4.55A4.54,4.54,0,0,1,5.9.21l29,9.06C59.51,17,74,30.59,73.79,45.73c-.2,11.64-8.92,22.18-24.08,29.83C64.94,83.32,73.62,94,73.62,105.66c0,15.48-15.26,29.18-40.8,36.67L6.07,150.17a4.58,4.58,0,0,1-1.29.19m40-72.52a107.54,107.54,0,0,1-13.7,4.73L4.7,89.84a.37.37,0,0,0-.27.36v55.61a.36.36,0,0,0,.15.3.35.35,0,0,0,.33.06l26.74-7.84c23.67-6.93,37.8-19.15,37.8-32.67C69.45,94.89,60.46,84.94,44.83,77.83ZM4.54,4.17a.37.37,0,0,0-.22.07.36.36,0,0,0-.15.3V60.31a.37.37,0,0,0,.27.36L32.85,69a104.68,104.68,0,0,1,12,4.29c15.57-7,24.59-16.85,24.77-27.62.23-13.19-13.21-25.3-35.95-32.41l-29-9.06Z"></path>
    </g>
  </g>
</svg>
